<?xml version="1.0" encoding="utf-8"?>
<!-- Generator: Adobe Illustrator 28.4.1, SVG Export Plug-In . SVG Version: 6.00 Build 0)  -->
<svg version="1.1" id="logo" xmlns="http://www.w3.org/2000/svg" xmlns:xlink="http://www.w3.org/1999/xlink" x="0px" y="0px"
	 viewBox="0 0 397.3 323.9" style="enable-background:new 0 0 397.3 323.9;" xml:space="preserve">
<style type="text/css">
	.st0{fill:url(#SVGID_1_);}
	.st1{fill:url(#SVGID_00000031911904296741767150000014040580473949755063_);}
	.st2{fill:url(#SVGID_00000090270049195576174120000001109243051415549105_);}
	.st3{fill:url(#SVGID_00000105425342803756488510000002465832580668218293_);}
	.st4{fill:url(#SVGID_00000111869833633469531220000000497447113693086352_);}
	.st5{fill:url(#SVGID_00000011752185593172649930000001552671912874418867_);}
	.st6{fill:url(#SVGID_00000100372309713380508480000005039267954093550470_);}
</style>
<linearGradient id="SVGID_1_" gradientUnits="userSpaceOnUse" x1="166.205" y1="194.6188" x2="504.035" y2="194.6188" gradientTransform="matrix(1 0 0 -1 -106.77 394.31)">
	<stop  offset="0" style="stop-color:#99C8F2"/>
	<stop  offset="0.36" style="stop-color:#547C8C"/>
</linearGradient>
<path class="st0" d="M397.3,205.8l-6.6-15.9L229.1,257c-10.9-14.7-30-20.7-47.3-14.7L110.4,76.6l-0.5-1.2H59.4v13.6H102l68.6,159.1
	c-18.7,13.7-22.7,39.9-9,58.6c13.7,18.7,39.9,22.7,58.6,9c10.8-7.9,17.1-20.5,17.1-33.8c0-3.1-0.3-6.3-1-9.3L397.3,205.8z
	 M194.7,305.5c-13,0-23.5-10.5-23.5-23.5s10.5-23.5,23.5-23.5s23.5,10.5,23.5,23.5c0,0,0,0,0,0C218.2,295,207.7,305.5,194.7,305.5
	C194.7,305.5,194.7,305.5,194.7,305.5z"/>
<linearGradient id="SVGID_00000161627709279887978840000016416590139521356423_" gradientUnits="userSpaceOnUse" x1="297.8536" y1="277.0811" x2="398.0936" y2="403.1711" gradientTransform="matrix(1 0 0 -1 -106.7674 394.3065)">
	<stop  offset="0.36" style="stop-color:#99C8F2"/>
	<stop  offset="0.94" style="stop-color:#FFFFFF"/>
</linearGradient>
<polygon style="fill:url(#SVGID_00000161627709279887978840000016416590139521356423_);" points="152.1,52.2 281.9,0 313.2,77.6 
	183.4,129.9 "/>
<linearGradient id="SVGID_00000178162609058675378930000007224503195244508059_" gradientUnits="userSpaceOnUse" x1="339.7066" y1="176.6689" x2="448.1566" y2="332.4489" gradientTransform="matrix(1 0 0 -1 -106.7743 394.3104)">
	<stop  offset="0.36" style="stop-color:#99C8F2"/>
	<stop  offset="0.94" style="stop-color:#FFFFFF"/>
</linearGradient>
<polygon style="fill:url(#SVGID_00000178162609058675378930000007224503195244508059_);" points="177.5,145.6 330.3,84.1 
	367.3,176.3 214.6,237.7 "/>
<linearGradient id="SVGID_00000080927068828786871650000000413878462885943974_" gradientUnits="userSpaceOnUse" x1="101.754" y1="415.8619" x2="17.754" y2="372.0419" gradientTransform="matrix(1 0 0 -1 0 520)">
	<stop  offset="0" style="stop-color:#99C8F2"/>
	<stop  offset="0.99" style="stop-color:#F8FBFE"/>
</linearGradient>
<polygon style="fill:url(#SVGID_00000080927068828786871650000000413878462885943974_);" points="1.2,143.6 95.9,120.2 89.5,102 "/>
<linearGradient id="SVGID_00000057859768763886132960000005039331513305543333_" gradientUnits="userSpaceOnUse" x1="58.025" y1="263.78" x2="152.765" y2="263.78" gradientTransform="matrix(1 0 0 -1 0 520)">
	<stop  offset="0" style="stop-color:#F8FBFE"/>
	<stop  offset="1" style="stop-color:#99C8F2"/>
</linearGradient>
<polygon style="fill:url(#SVGID_00000057859768763886132960000005039331513305543333_);" points="58,277 152.8,253.6 146.3,235.4 
	"/>
<linearGradient id="SVGID_00000152986489150752852870000007656876211384600504_" gradientUnits="userSpaceOnUse" x1="58.805" y1="306.58" x2="135.675" y2="306.58" gradientTransform="matrix(1 0 0 -1 0 520)">
	<stop  offset="0" style="stop-color:#F8FBFE"/>
	<stop  offset="1" style="stop-color:#99C8F2"/>
</linearGradient>
<polygon style="fill:url(#SVGID_00000152986489150752852870000007656876211384600504_);" points="58.8,231 135.7,214 129.2,195.8 
	"/>
<linearGradient id="SVGID_00000016771357516506704800000001894331668132464804_" gradientUnits="userSpaceOnUse" x1="67.725" y1="350.935" x2="118.145" y2="350.935" gradientTransform="matrix(1 0 0 -1 0 520)">
	<stop  offset="0" style="stop-color:#F8FBFE"/>
	<stop  offset="1" style="stop-color:#99C8F2"/>
</linearGradient>
<polygon style="fill:url(#SVGID_00000016771357516506704800000001894331668132464804_);" points="67.7,179.9 118.1,173.2 
	113.7,158.2 "/>
</svg>
