<?xml version="1.0" encoding="UTF-8"?>
<svg xmlns="http://www.w3.org/2000/svg" xmlns:xlink="http://www.w3.org/1999/xlink" viewBox="0 0 427 355">
  <defs>
    <style>
      .cls-1 {
        filter: url(#drop-shadow-1);
      }

      .cls-1, .cls-2 {
        fill: url(#Degradado_sin_nombre_51);
        stroke-width: 0px;
      }
    </style>
    <linearGradient id="Degradado_sin_nombre_51" data-name="Degradado sin nombre 51" x1="89.21" y1="306.51" x2="339.67" y2="56.05" gradientUnits="userSpaceOnUse">
      <stop offset="0" stop-color="#193140"/>
      <stop offset=".55" stop-color="#1b3342"/>
      <stop offset=".91" stop-color="#213c4a"/>
      <stop offset="1" stop-color="#24404d"/>
    </linearGradient>
    <filter id="drop-shadow-1" filterUnits="userSpaceOnUse">
      <feOffset dx="0" dy="2.83"/>
      <feGaussianBlur result="blur" stdDeviation="5"/>
      <feFlood flood-color="#000" flood-opacity=".3"/>
      <feComposite in2="blur" operator="in"/>
      <feComposite in="SourceGraphic"/>
    </filter>
  </defs>
  <g id="logo">
    <path class="cls-2" d="M411.46,218.37l-6.59-15.87-161.54,67.07c-10.87-14.71-30.02-20.67-47.32-14.73L124.56,89.18l-.52-1.21h-50.41v13.64h42.6l68.62,159.12c-18.67,13.7-22.71,39.94-9.01,58.61,13.7,18.67,39.94,22.71,58.61,9.01,10.77-7.9,17.13-20.46,17.13-33.82,0-3.14-.34-6.28-1.05-9.34l160.93-66.82ZM208.87,318.05c-13,0-23.53-10.53-23.53-23.53s10.53-23.53,23.53-23.53,23.53,10.53,23.53,23.53h0c0,13-10.53,23.53-23.52,23.53h0ZM166.3,64.77L296.14,12.53l31.25,77.65-129.84,52.25-31.25-77.65ZM191.7,158.13l152.75-61.47,37.07,92.12-152.75,61.47-37.07-92.12ZM15.39,156.09l94.74-23.35-6.45-18.19L15.39,156.09ZM72.22,289.52l94.74-23.35-6.45-18.19-88.29,41.54ZM73,243.55l76.87-17.01-6.45-18.19-70.42,35.2ZM81.92,192.42l50.42-6.68-4.4-14.97-46.02,21.65Z"/>
  </g>
  <g id="Capa_2" data-name="Capa 2">
    <path class="cls-1" d="M411.46,218.37l-6.59-15.87-161.54,67.07c-10.87-14.71-30.02-20.67-47.32-14.73L124.56,89.18l-.52-1.21h-50.41v13.64h42.6l68.62,159.12c-18.67,13.7-22.71,39.94-9.01,58.61,13.7,18.67,39.94,22.71,58.61,9.01,10.77-7.9,17.13-20.46,17.13-33.82,0-3.14-.34-6.28-1.05-9.34l160.93-66.82ZM208.87,318.05c-13,0-23.53-10.53-23.53-23.53s10.53-23.53,23.53-23.53,23.53,10.53,23.53,23.53h0c0,13-10.53,23.53-23.52,23.53h0ZM166.3,64.77L296.14,12.53l31.25,77.65-129.84,52.25-31.25-77.65ZM191.7,158.13l152.75-61.47,37.07,92.12-152.75,61.47-37.07-92.12ZM15.39,156.09l94.74-23.35-6.45-18.19L15.39,156.09ZM72.22,289.52l94.74-23.35-6.45-18.19-88.29,41.54ZM73,243.55l76.87-17.01-6.45-18.19-70.42,35.2ZM81.92,192.42l50.42-6.68-4.4-14.97-46.02,21.65Z"/>
  </g>
</svg>