<?xml version="1.0" encoding="utf-8"?>
<!-- Generator: Adobe Illustrator 28.4.1, SVG Export Plug-In . SVG Version: 6.00 Build 0)  -->
<svg version="1.1" id="Capa_1" xmlns="http://www.w3.org/2000/svg" xmlns:xlink="http://www.w3.org/1999/xlink" x="0px" y="0px"
	 viewBox="0 0 1024 1024" style="enable-background:new 0 0 1024 1024;" xml:space="preserve">
<style type="text/css">
	.st0{fill:#4A7086;}
</style>
<path class="st0" d="M507.4,103C279.8,103,94.7,288.1,94.7,515.7c0.2,23.7,2.3,47.3,6.5,70.6c0,0.1,0.2,0.1,0.3,0.2
	c1.6,5.9,6.9,10,13,10.1c7.6,0,13.8-6.2,13.8-13.8c-0.1-0.4-0.2-0.9-0.3-1.3l0.2-0.1c-3.9-21.7-5.9-43.6-6-65.7
	c0-212.7,172.4-385.1,385.1-385.1S892.5,303,892.5,515.7S720.1,900.8,507.4,900.8c-142.1,0-266-77.2-332.7-191.8
	c0-0.1-0.1-0.1-0.1-0.2c-0.2-0.3-0.4-0.6-0.6-0.9c-2.3-4.5-6.9-7.3-12-7.4c-7.6,0-13.7,6.2-13.8,13.8c0.1,2.8,1,5.6,2.7,7.8
	l-0.2,0.1c71.5,123,204.4,206,356.6,206c227.5,0,412.6-185.1,412.6-412.6S734.9,103,507.4,103z"/>
<path class="st0" d="M507.4,570.4c82.3,0,149.3,67,149.3,149.3h27.5c0-97.5-79.3-176.8-176.8-176.8s-176.8,79.3-176.8,176.8H358
	C358,637.4,425,570.4,507.4,570.4z"/>
<path class="st0" d="M330.5,719.7c0,7.6,6.2,13.8,13.8,13.8c7.6,0,13.8-6.2,13.8-13.8l0,0c0-7.6-6.2-13.8-13.8-13.8
	C336.7,706,330.5,712.1,330.5,719.7L330.5,719.7z"/>
<path class="st0" d="M656.7,719.7c0,7.6,6.2,13.8,13.8,13.8s13.8-6.2,13.8-13.8l0,0c0-7.6-6.2-13.8-13.8-13.8
	S656.7,712.1,656.7,719.7L656.7,719.7z"/>
<path class="st0" d="M507.4,570.4c-75.1,0-136.3-61.1-136.3-136.3s61.1-136.3,136.3-136.3S643.7,359,643.7,434.1
	S582.5,570.4,507.4,570.4z M507.4,325.3c-60.1,0-108.8,48.7-108.8,108.8s48.7,108.8,108.8,108.8s108.8-48.7,108.8-108.8c0,0,0,0,0,0
	C616.1,374.1,567.4,325.4,507.4,325.3z"/>
</svg>
